<svg height="1024" width="768" xmlns="http://www.w3.org/2000/svg"><path d="M768 128C768 57 711 0 640 0S512 57 512 128c0 47 26 89 64 111v106L384 557 192 345V239c38-22 64-63 64-111C256 57 199 0 128 0S0 57 0 128c0 47 26 89 64 111v156l256 282v109c-38 22-64 63-64 111 0 71 57 128 128 128s128-57 128-128c0-47-26-89-64-111V677l256-282V239c38-22 64-63 64-111zM128 65c34 0 62 28 62 62s-28 62-62 62-62-28-62-62 28-62 62-62zm256 891c-34 0-62-28-62-62s28-62 62-62 62 28 62 62-28 62-62 62zM640 65c34 0 62 28 62 62s-28 62-62 62-62-28-62-62 28-62 62-62z" fill="#4682b4"/></svg>