<svg height="1024" width="1024" xmlns="http://www.w3.org/2000/svg"><path d="M512 0C229.25 0 0 229.25 0 512c0 226.25 146.688 418.125 350.156 485.812 25.594 4.688 34.938-11.125 34.938-24.625 0-12.188-.47-52.562-.72-95.312C242 908.812 211.907 817.5 211.907 817.5c-23.312-59.125-56.844-74.875-56.844-74.875-46.53-31.75 3.53-31.125 3.53-31.125 51.406 3.562 78.47 52.75 78.47 52.75 45.688 78.25 119.875 55.625 149 42.5 4.654-33 17.904-55.625 32.5-68.375-113.656-12.937-233.218-56.875-233.218-253.063 0-55.938 19.97-101.562 52.656-137.406-5.22-13-22.844-65.094 5.062-135.562 0 0 42.938-13.75 140.812 52.5 40.812-11.406 84.594-17.03 128.125-17.22 43.5.19 87.31 5.876 128.187 17.282 97.688-66.312 140.688-52.5 140.688-52.5 28 70.53 10.375 122.562 5.125 135.5 32.812 35.844 52.625 81.47 52.625 137.406 0 196.688-119.75 240-233.812 252.688 18.438 15.875 34.75 47 34.75 94.75 0 68.438-.688 123.625-.688 140.5 0 13.625 9.312 29.562 35.25 24.562C877.438 930 1024 738.125 1024 512 1024 229.25 794.75 0 512 0z" fill="#4682b4"/></svg>